<?xml version="1.0" encoding="utf-8"?>
<!-- Generator: Adobe Illustrator 18.1.1, SVG Export Plug-In . SVG Version: 6.00 Build 0)  -->
<!DOCTYPE svg PUBLIC "-//W3C//DTD SVG 1.1//EN" "http://www.w3.org/Graphics/SVG/1.1/DTD/svg11.dtd">
<svg version="1.1" id="Layer_1" xmlns="http://www.w3.org/2000/svg" xmlns:xlink="http://www.w3.org/1999/xlink" x="0px" y="0px"
	 viewBox="0 0 160 40" enable-background="new 0 0 160 40" xml:space="preserve">
<g>
	<path fill="#FFFFFF" d="M29.736,23.561c-0.288,0.703-0.648,1.746-0.811,2.413c-0.072,0.144-0.432,0.126-0.486-0.019
		c0.343-1.566-0.107-2.412-1.962-2.412c-1.278,0-2.953,0.396-4.609,2.017c-0.9,0.899-2.125,3.007-2.125,5.384
		c0,2.557,1.206,3.943,3.493,3.943c1.873,0,3.007-1.099,3.871-2.521c0.18-0.072,0.378-0.035,0.433,0.126
		c-0.162,0.486-0.559,1.44-1.171,2.539c-0.396,0-0.882,0.108-1.422,0.198c-0.522,0.09-1.117,0.216-1.747,0.216
		c-2.341,0-5.041-1.062-5.041-4.843c0-2.09,1.098-4.088,2.574-5.42c1.513-1.369,3.691-2.197,6.05-2.197
		C28.188,22.984,29.286,23.381,29.736,23.561z"/>
	<path fill="#FFFFFF" d="M35.08,27.396c0.306-0.145,0.774,0.035,0.882,0.27c-0.27,0.666-1.836,4.646-2.412,6.283
		c-0.108,0.307-0.019,0.415,0.126,0.415c0.306,0,0.828-0.306,1.854-1.206c0.126,0,0.252,0.09,0.252,0.233
		c-0.756,1.009-2.034,2.017-3.025,2.017c-0.414,0-0.521-0.342-0.521-0.486c0-0.126,0.036-0.287,0.18-0.702l0.595-1.62l-0.055-0.018
		c-1.278,1.584-3.114,2.826-3.961,2.826c-0.504,0-0.792-0.504-0.792-1.008c0-0.414,0.396-1.855,1.584-3.493
		c0.864-1.188,1.639-1.909,2.377-2.323c0.702-0.396,1.152-0.521,1.62-0.521c0.198,0,0.324,0.054,0.433,0.107
		c0.072,0.036,0.27,0.198,0.36,0.379L35.08,27.396z M31.947,29.449c-1.152,1.025-2.251,3.385-2.251,4.662
		c0,0.217,0.108,0.343,0.271,0.343c0.18,0,0.72-0.234,1.746-1.171c1.368-1.277,2.125-2.826,2.413-3.889
		c-0.126-0.342-0.433-0.648-0.9-0.648C32.793,28.746,32.505,28.944,31.947,29.449z"/>
	<path fill="#FFFFFF" d="M40.533,28.098c0.145,0,0.342-0.035,0.685-0.035c0.828,0,2.448,0.342,2.448,2.053
		c0,1.656-1.008,3.114-2.376,4.267c-1.135,0.954-2.503,1.026-2.575,1.026c-0.162,0-0.306-0.036-0.559-0.107
		c-0.144,0.035-0.233,0.144-0.288,0.324l-0.737,2.124c-0.486,1.386-0.45,1.548,0.144,1.639l0.738,0.108
		c0.09,0.125,0.09,0.324-0.072,0.396c-1.368,0-2.719,0.072-3.925,0.108c-0.126-0.108-0.126-0.289,0-0.396l0.396-0.072
		c1.009-0.18,1.081-0.594,1.351-1.332l3.35-9.398c-0.648,0.18-1.062,0.359-1.819,0.738c-0.144-0.019-0.233-0.181-0.18-0.343
		c0.63-0.45,1.351-0.756,2.232-0.99l0.54-1.458c0.234-0.198,0.955-0.019,1.026,0.252L40.533,28.098z M38.517,33.896
		c-0.072,0.197-0.054,0.377,0.019,0.485c0.107,0.181,0.378,0.414,0.666,0.414c0.234,0,1.242-0.252,2.017-1.458
		c0.864-1.332,1.062-2.593,1.062-3.385c0-0.9-0.648-1.351-1.423-1.351c-0.198,0-0.342,0.018-0.468,0.036L38.517,33.896z"/>
	<path fill="#FFFFFF" d="M47.121,29.305c0.09-0.198,0.09-0.342-0.036-0.342s-0.594,0.216-1.494,0.953
		c-0.162-0.018-0.27-0.161-0.234-0.306c0.991-1.134,2.377-1.8,2.972-1.8c0.126,0,0.216,0.107,0.288,0.18
		c0.107,0.107,0.107,0.27-0.108,0.792l-2.143,5.114c-0.072,0.18-0.09,0.396,0.054,0.396c0.307,0,1.261-0.63,1.873-1.333
		c0.18,0.019,0.27,0.145,0.27,0.307c-0.27,0.522-2.124,2.143-3.366,2.143c-0.091,0-0.198-0.054-0.289-0.162
		c-0.107-0.126-0.161-0.288-0.071-0.486L47.121,29.305z M49.264,24.785c0,0.559-0.396,1.116-0.936,1.116
		c-0.469,0-0.631-0.36-0.631-0.666c0-0.396,0.252-1.134,0.955-1.134C49.066,24.102,49.264,24.389,49.264,24.785z"/>
	<path fill="#FFFFFF" d="M53.008,28.926l-1.621,4.736c-0.107,0.342-0.018,0.449,0.126,0.449c0.271,0,1.459-0.936,2.053-1.62
		c0.181,0,0.288,0.108,0.252,0.324c-1.008,1.495-2.7,2.593-3.457,2.593c-0.252,0-0.485-0.27-0.485-0.486
		c0-0.234,0.071-0.486,0.252-1.025l1.692-4.971h-1.404c-0.036-0.18,0.018-0.432,0.198-0.504l1.44-0.252l1.008-1.782
		c0.18-0.108,0.54-0.072,0.685,0.108l-0.522,1.764h1.963c0.126,0.181,0.018,0.541-0.217,0.666H53.008z"/>
	<path fill="#FFFFFF" d="M61.252,27.396c0.306-0.145,0.774,0.035,0.882,0.27c-0.27,0.666-1.836,4.646-2.412,6.283
		c-0.108,0.307-0.019,0.415,0.126,0.415c0.306,0,0.828-0.306,1.854-1.206c0.126,0,0.252,0.09,0.252,0.233
		c-0.756,1.009-2.034,2.017-3.025,2.017c-0.414,0-0.521-0.342-0.521-0.486c0-0.126,0.036-0.287,0.18-0.702l0.595-1.62l-0.055-0.018
		c-1.278,1.584-3.114,2.826-3.961,2.826c-0.504,0-0.792-0.504-0.792-1.008c0-0.414,0.396-1.855,1.584-3.493
		c0.864-1.188,1.639-1.909,2.377-2.323c0.702-0.396,1.152-0.521,1.62-0.521c0.198,0,0.324,0.054,0.433,0.107
		c0.072,0.036,0.27,0.198,0.36,0.379L61.252,27.396z M58.119,29.449c-1.152,1.025-2.251,3.385-2.251,4.662
		c0,0.217,0.108,0.343,0.271,0.343c0.18,0,0.72-0.234,1.746-1.171c1.368-1.277,2.125-2.826,2.413-3.889
		c-0.126-0.342-0.433-0.648-0.9-0.648C58.965,28.746,58.677,28.944,58.119,29.449z"/>
	<path fill="#FFFFFF" d="M64.221,33.986c-0.145,0.414-0.126,0.594,0.072,0.594c0.396,0,1.242-0.883,2.07-1.818
		c0.18-0.018,0.288,0.072,0.288,0.252c-0.468,0.9-1.603,2.395-3.097,2.395c-0.541,0-0.702-0.252-0.702-0.54s0.09-0.612,0.396-1.53
		l2.863-8.517c0.432-1.261,0.252-1.44-0.019-1.566l-0.324-0.144c-0.09-0.072-0.09-0.234,0-0.289c0.324-0.126,1.44-0.468,2.27-0.54
		l0.09,0.108c-0.234,0.648-0.414,1.152-1.062,3.097L64.221,33.986z"/>
	<path fill="#FFFFFF" d="M81.341,34.76c0.108,0.108,0.054,0.379-0.072,0.451c-0.558-0.037-1.242-0.055-2.034-0.055
		c-0.828,0-1.531,0.018-2.071,0.055c-0.18-0.072-0.18-0.379-0.018-0.451l0.558-0.054c0.396-0.036,0.631-0.181,0.703-0.288
		c0.054-0.09,0.144-0.342,0.197-1.116l0.162-2.413c0.036-0.414,0-0.468-0.378-0.468h-2.593c-0.54,0-0.576,0.019-0.918,0.558
		l-1.314,2.053c-0.63,0.99-0.811,1.261-0.811,1.351c0,0.108,0.072,0.216,0.414,0.271l0.666,0.107
		c0.145,0.108,0.091,0.379-0.035,0.451c-0.559-0.037-1.117-0.055-1.837-0.055c-0.702,0-1.351,0.018-1.999,0.055
		c-0.09-0.109-0.071-0.343,0.036-0.451l0.486-0.054c0.54-0.054,0.937-0.324,1.297-0.757c0.521-0.647,1.566-2.088,2.971-4.051
		l3.169-4.465c0.774-1.08,1.008-1.549,1.08-1.855c0.612-0.09,1.278-0.594,1.314-0.594c0.09,0,0.216,0.072,0.216,0.145
		c0,0.306-0.09,1.08-0.18,2.646l-0.36,6.807c-0.108,1.998-0.09,2.016,0.883,2.124L81.341,34.76z M78.478,29.701
		c0.307,0,0.343-0.037,0.36-0.361l0.288-3.942c0.019-0.252,0-0.468-0.036-0.468c-0.054,0-0.162,0.107-0.684,0.882l-2.503,3.619
		c-0.145,0.216-0.09,0.271,0.306,0.271H78.478z"/>
	<path fill="#FFFFFF" d="M89.891,24.659c0.359-1.009,0.414-1.314,0.162-1.495l-0.415-0.287c-0.035-0.072-0.018-0.181,0.055-0.252
		c0.342-0.127,1.351-0.36,2.124-0.343l0.072,0.108c-0.324,1.008-0.594,1.692-1.134,3.187c-1.783,4.915-2.629,7.796-2.791,8.337
		c-0.072,0.234-0.055,0.414,0.107,0.414c0.288,0,1.423-0.918,1.981-1.621c0.161,0,0.252,0.072,0.27,0.234
		c-0.486,0.99-2.125,2.467-3.061,2.467c-0.379,0-0.576-0.288-0.576-0.576c0-0.216,0.054-0.504,0.233-1.026l0.631-1.782l-0.072-0.018
		c-1.242,1.656-2.593,3.402-4.339,3.402c-0.703,0-1.081-0.576-1.081-1.297c0-1.277,0.973-3.42,2.395-4.699
		c1.225-1.098,2.359-1.602,3.224-1.602c0.288,0,0.72,0.18,0.918,0.558L89.891,24.659z M86.271,29.125
		c-0.721,0.666-2.017,2.376-2.575,3.511c-0.558,1.152-0.558,1.476-0.558,1.71c0,0.217,0.18,0.379,0.342,0.379
		c0.27,0,1.188-0.324,2.431-1.604c1.404-1.439,1.927-2.52,2.196-3.475c0.217-0.756-0.018-1.297-0.468-1.297
		C87.226,28.35,86.739,28.692,86.271,29.125z"/>
	<path fill="#FFFFFF" d="M93.254,29.377c0.126-0.343,0.108-0.522-0.126-0.522c-0.342,0-1.116,0.647-1.675,1.261
		c-0.162,0-0.288-0.162-0.27-0.307c0.576-0.811,1.782-1.998,2.845-1.998c0.414,0,0.81,0.521,0.558,1.188l-1.548,4.016
		c-0.09,0.252-0.181,0.612-0.181,0.846c0,0.307,0.145,0.648,0.522,0.648c0.414,0,1.152-0.414,1.963-1.332
		c1.044-1.188,1.548-2.593,1.548-3.439c0-0.432-0.035-0.863-0.162-1.278c0.036-0.378,0.324-0.647,0.667-0.647
		c0.576,0,0.702,0.666,0.702,1.115c0,1.314-1.351,3.871-2.899,5.168c-1.368,1.135-2.376,1.314-2.809,1.314
		c-0.468,0-0.828-0.54-0.828-1.08c0-0.396,0.18-1.026,0.45-1.729L93.254,29.377z"/>
	<path fill="#FFFFFF" d="M100.976,29.305c0.091-0.198,0.091-0.342-0.036-0.342c-0.126,0-0.594,0.216-1.494,0.953
		c-0.162-0.018-0.27-0.161-0.234-0.306c0.99-1.134,2.377-1.8,2.972-1.8c0.126,0,0.216,0.107,0.288,0.18
		c0.107,0.107,0.107,0.27-0.108,0.792l-2.143,5.114c-0.072,0.18-0.09,0.396,0.054,0.396c0.307,0,1.261-0.63,1.873-1.333
		c0.18,0.019,0.27,0.145,0.27,0.307c-0.27,0.522-2.124,2.143-3.367,2.143c-0.09,0-0.197-0.054-0.287-0.162
		c-0.108-0.126-0.162-0.288-0.072-0.486L100.976,29.305z M103.118,24.785c0,0.559-0.396,1.116-0.936,1.116
		c-0.469,0-0.631-0.36-0.631-0.666c0-0.396,0.252-1.134,0.954-1.134C102.921,24.102,103.118,24.389,103.118,24.785z"/>
	<path fill="#FFFFFF" d="M107.889,28.836c0,0.289-0.181,0.486-0.324,0.559c-0.126,0.036-0.234,0-0.342-0.145
		c-0.307-0.306-0.541-0.576-1.099-0.576c-0.522,0-0.738,0.451-0.738,0.721c0,0.378,0.09,0.756,0.612,1.639
		c0.45,0.756,0.72,1.206,0.684,1.998c-0.018,0.486-0.27,1.152-0.936,1.729c-0.469,0.414-1.135,0.648-1.819,0.648
		c-0.684,0-1.098-0.54-1.098-0.954c0-0.181,0.071-0.378,0.27-0.595c0.145-0.125,0.343-0.125,0.486,0
		c0.234,0.271,0.774,0.721,1.242,0.721c0.433,0,0.864-0.45,0.864-1.026c0-0.306-0.216-0.864-0.666-1.585
		c-0.468-0.756-0.63-1.367-0.63-1.674c0-0.702,0.306-1.225,1.08-1.891c0.522-0.45,1.099-0.594,1.332-0.594
		C107.475,27.811,107.889,28.387,107.889,28.836z"/>
	<path fill="#FFFFFF" d="M114.603,30.078c-0.054,0.99-0.576,2.719-1.908,4.088c-1.116,1.152-2.089,1.242-2.575,1.242
		c-1.152,0-1.908-0.846-1.8-2.395c0.071-1.116,0.737-2.863,1.962-4.033c0.937-0.9,1.747-1.17,2.485-1.17
		C114.045,27.811,114.675,28.764,114.603,30.078z M111.326,29.215c-1.045,1.404-1.747,3.547-1.801,4.501
		c-0.036,0.63,0.216,1.152,0.738,1.152c0.396,0,0.846-0.162,1.422-0.937c0.793-1.062,1.639-3.439,1.675-4.393
		c0.019-0.559-0.09-1.189-0.72-1.189C112.28,28.35,111.848,28.512,111.326,29.215z"/>
	<path fill="#FFFFFF" d="M118.599,29.521l-0.774,2.269h0.09c0.54-1.008,1.423-2.449,1.891-3.043c0.414-0.54,0.864-0.936,1.314-0.936
		c0.63,0,0.721,0.611,0.721,0.882s-0.162,0.792-0.379,1.08c-0.216,0.271-0.504,0.288-0.576-0.09
		c-0.09-0.468-0.197-0.702-0.378-0.702c-0.162,0-0.36,0.18-0.63,0.54c-1.099,1.404-2.106,3.601-3.062,5.672
		c-0.071,0.144-0.161,0.216-0.306,0.216c-0.198,0-0.721-0.072-0.594-0.468c0.233-0.721,1.368-3.907,1.854-5.672
		c0.054-0.198,0.018-0.378-0.145-0.378c-0.468,0-0.954,0.504-1.278,0.936c-0.18,0.037-0.306-0.071-0.288-0.287
		c0.576-0.973,1.261-1.729,2.125-1.729C119.085,27.811,118.761,29.034,118.599,29.521z"/>
	<path fill="#FFFFFF" d="M126.051,28.836c0,0.289-0.181,0.486-0.324,0.559c-0.126,0.036-0.234,0-0.342-0.145
		c-0.307-0.306-0.541-0.576-1.099-0.576c-0.522,0-0.738,0.451-0.738,0.721c0,0.378,0.09,0.756,0.612,1.639
		c0.45,0.756,0.72,1.206,0.684,1.998c-0.018,0.486-0.27,1.152-0.936,1.729c-0.469,0.414-1.135,0.648-1.819,0.648
		c-0.684,0-1.098-0.54-1.098-0.954c0-0.181,0.071-0.378,0.27-0.595c0.145-0.125,0.343-0.125,0.486,0
		c0.234,0.271,0.774,0.721,1.242,0.721c0.433,0,0.864-0.45,0.864-1.026c0-0.306-0.216-0.864-0.666-1.585
		c-0.468-0.756-0.63-1.367-0.63-1.674c0-0.702,0.306-1.225,1.08-1.891c0.522-0.45,1.099-0.594,1.332-0.594
		C125.637,27.811,126.051,28.387,126.051,28.836z"/>
	<path fill="#FFFFFF" d="M128.516,34.473c0,1.296-1.53,2.25-2.719,2.592c-0.126-0.054-0.18-0.234-0.126-0.359
		c0.594-0.271,1.656-0.883,1.656-1.873c0-0.342-0.216-0.612-0.594-0.702c-0.145-0.036-0.271-0.198-0.271-0.396
		c0-0.396,0.36-0.685,0.774-0.685C128.084,33.05,128.516,33.806,128.516,34.473z"/>
	<path fill="#FFFFFF" d="M138.488,32.239c-0.612,1.98-0.738,2.358,1.458,2.358c2.07,0,2.845-0.09,3.943-1.872
		c0.18-0.054,0.36-0.019,0.396,0.108c-0.197,0.611-0.828,1.891-1.152,2.377c-0.666-0.019-1.386-0.037-2.106-0.037
		c-0.72-0.018-1.422-0.018-2.053-0.018h-2.088c-0.738,0-1.333,0.018-1.909,0.055c-0.144-0.091-0.144-0.343-0.018-0.451l0.432-0.054
		c0.864-0.108,1.045-0.306,1.621-2.143l2.106-6.698c0.54-1.692,0.576-1.963-0.414-2.125l-0.433-0.071
		c-0.107-0.144-0.09-0.378,0.108-0.45c0.702,0.018,1.314,0.054,2.053,0.054c0.774,0,1.332-0.036,2.269-0.054
		c0.126,0.072,0.162,0.359,0,0.45l-0.559,0.071c-1.025,0.127-1.116,0.343-1.674,2.125L138.488,32.239z"/>
	<path fill="#FFFFFF" d="M147.109,34.256c0,0.721-0.504,1.152-1.026,1.152c-0.504,0-0.792-0.324-0.792-0.846
		c0-0.648,0.504-1.117,1.026-1.117S147.109,33.842,147.109,34.256z"/>
	<path fill="#FFFFFF" d="M152.366,23.867c-0.126-0.108-0.072-0.324,0.054-0.433c0.774-0.126,1.837-0.216,3.025-0.216
		c1.782,0,2.916,0.342,3.564,0.883c0.721,0.611,0.99,1.367,0.99,2.232c0,1.206-0.666,2.143-1.53,2.754
		c-0.918,0.631-2.305,0.919-3.331,0.919c-0.144-0.054-0.162-0.252-0.054-0.378c1.332-0.162,3.402-1.135,3.402-3.584
		c0-1.566-1.008-2.268-2.431-2.268c-0.576,0-0.611,0.071-0.792,0.63l-2.539,8.156c-0.521,1.675-0.576,2.071,0.343,2.143l0.648,0.054
		c0.107,0.127,0.054,0.379-0.072,0.451c-0.864-0.037-1.495-0.055-2.359-0.055c-0.738,0-1.35,0.018-2.07,0.055
		c-0.144-0.091-0.144-0.343-0.018-0.451l0.558-0.054c0.864-0.09,1.045-0.306,1.621-2.143l2.322-7.454
		c0.271-0.864,0.198-1.116-0.468-1.17L152.366,23.867z"/>
	<path fill="#FFFFFF" d="M158.305,34.256c0,0.721-0.504,1.152-1.026,1.152c-0.504,0-0.792-0.324-0.792-0.846
		c0-0.648,0.504-1.117,1.026-1.117S158.305,33.842,158.305,34.256z"/>
</g>
<g>
	<path fill="#FFFFFF" d="M8.152,15.091l-2.48-5.182L4.159,11.91v3.181H0V1.368h4.159v5.661l3.993-5.661h3.971L8.488,6.39
		l4.517,8.701H8.152z"/>
	<path fill="#FFFFFF" d="M20.508,15.091c-0.106-0.46-0.147-0.94-0.147-1.42c-0.84,1.18-2.039,1.62-3.509,1.62
		c-1.997,0-3.74-1.04-3.74-3.081c0-1.62,1.323-2.7,2.815-3.141c1.365-0.4,2.815-0.561,4.223-0.641V8.35
		c0-0.921-0.252-1.28-1.261-1.28c-0.819,0-1.513,0.279-1.638,1.141l-3.825-0.341c0.631-2.54,3.173-3.2,5.59-3.2
		c1.261,0,2.878,0.16,3.929,0.88c1.407,0.94,1.239,2.261,1.239,3.721v3.581c0,0.76,0.021,1.52,0.336,2.24H20.508z M20.151,10.31
		c-1.009,0.1-2.689,0.4-2.689,1.641c0,0.66,0.442,0.939,1.093,0.939c1.576,0,1.597-1.26,1.597-2.38V10.31z"/>
	<path fill="#FFFFFF" d="M30.511,10.31l1.87-5.441h3.067L31.31,15.711c-0.798,2.12-1.869,2.921-4.266,2.921
		c-0.629,0-1.281-0.02-2.122-0.1V15.69c0.504,0.061,1.009,0.121,1.513,0.121c0.568,0,1.828,0.02,1.828-0.781
		c0-0.299-0.168-0.64-0.274-0.92l-3.76-9.242h4.517L30.511,10.31z"/>
	<path fill="#FFFFFF" d="M36.353,4.868h3.929V6.31h0.042c0.504-1.16,1.743-1.641,3.047-1.641c1.009,0,2.164,0.279,2.794,1.061
		c0.672,0.84,0.672,2,0.672,3.061v6.301h-4.16V8.89c0-0.62,0-1.48-0.903-1.48c-1.156,0-1.261,0.94-1.261,1.78v5.901h-4.161V4.868z"
		/>
	<path fill="#FFFFFF" d="M59.678,11.67c-0.651,2.48-2.963,3.621-5.505,3.621c-1.576,0-3.11-0.32-4.328-1.341
		c-1.155-0.98-1.765-2.381-1.743-3.84c-0.021-1.381,0.545-2.881,1.554-3.861c1.093-1.08,2.732-1.58,4.266-1.58
		c3.572,0,5.757,2.2,5.757,5.561v0.541h-7.206c0,1.1,0.377,1.9,1.638,1.9c0.946,0,1.472-0.361,1.64-1.24L59.678,11.67z M55.476,8.77
		c0-1.001-0.336-1.761-1.513-1.761c-1.093,0-1.491,0.82-1.491,1.761H55.476z"/>
	<path fill="#FFFFFF" d="M74.788,12.39h-3.845l-0.882,2.701h-3.592l4.475-13.723h4.664l4.517,13.723h-4.517L74.788,12.39z
		 M74.032,9.39l-1.177-3.98l-1.177,3.98H74.032z"/>
	<path fill="#FFFFFF" d="M80.904,4.868h3.929V6.31h0.042c0.504-1.16,1.743-1.641,3.047-1.641c1.009,0,2.164,0.279,2.794,1.061
		c0.672,0.84,0.672,2,0.672,3.061v6.301h-4.16V8.89c0-0.62,0-1.48-0.903-1.48c-1.156,0-1.261,0.94-1.261,1.78v5.901h-4.161V4.868z"
		/>
	<path fill="#FFFFFF" d="M99.542,15.091v-1.36h-0.041c-0.61,1.12-1.513,1.561-2.857,1.561c-3.089,0-4.161-2.741-4.161-5.261
		c0-2.621,1.052-5.361,4.286-5.361c1.03,0,1.912,0.42,2.564,1.04V1.368h4.159v13.723H99.542z M99.333,8.749
		c0-0.399,0.021-0.88-0.252-1.199c-0.19-0.261-0.568-0.4-0.904-0.4c-0.736,0-1.051,0.46-1.177,1.08c-0.126,0.561-0.21,1.34-0.21,1.9
		c0,0.9,0.063,2.5,1.366,2.5c0.42,0,0.693-0.18,0.924-0.52c0.293-0.44,0.252-0.801,0.252-1.301V8.749z"/>
	<path fill="#FFFFFF" d="M116.311,11.67c-0.651,2.48-2.963,3.621-5.505,3.621c-1.576,0-3.11-0.32-4.328-1.341
		c-1.155-0.98-1.765-2.381-1.743-3.84c-0.021-1.381,0.545-2.881,1.554-3.861c1.093-1.08,2.732-1.58,4.266-1.58
		c3.572,0,5.757,2.2,5.757,5.561v0.541h-7.206c0,1.1,0.377,1.9,1.638,1.9c0.946,0,1.472-0.361,1.64-1.24L116.311,11.67z
		 M112.109,8.77c0-1.001-0.336-1.761-1.513-1.761c-1.093,0-1.491,0.82-1.491,1.761H112.109z"/>
	<path fill="#FFFFFF" d="M121.147,6.97c0.357-1.421,1.134-2.422,2.794-2.301l0.568,0.039V8.29c-0.252-0.061-0.526-0.101-0.799-0.101
		c-0.672,0-1.365,0.12-1.701,0.7c-0.294,0.5-0.294,1.16-0.294,1.76v4.441h-4.16V4.868h3.55V6.97H121.147z"/>
	<path fill="#FFFFFF" d="M128.543,11.771c0.232,0.98,1.388,1.1,2.291,1.1c0.42,0,1.597-0.039,1.597-0.641
		c0-0.52-1.429-0.619-1.807-0.66c-2.249-0.299-4.917-0.719-4.917-3.439c0-1.16,0.651-2.081,1.659-2.682
		c1.052-0.619,2.249-0.779,3.446-0.779c2.017,0,4.14,0.74,4.854,2.66l-3.173,0.58c-0.315-0.7-1.134-0.9-1.869-0.9
		c-0.756,0-1.345,0.24-1.345,0.541c0,0.319,0.294,0.439,0.63,0.52c0.462,0.12,1.303,0.18,1.807,0.24
		c0.966,0.119,2.081,0.24,2.921,0.76c0.987,0.6,1.513,1.5,1.513,2.601c0,2.821-3.131,3.621-5.547,3.621
		c-2.396,0-4.602-0.74-5.4-3.101L128.543,11.771z"/>
	<path fill="#FFFFFF" d="M148.379,10.069c0,3.102-2.627,5.222-5.904,5.222c-3.278,0-5.904-2.12-5.904-5.222
		c0-3.28,2.542-5.4,5.904-5.4S148.379,6.789,148.379,10.069z M141.025,9.93c0,2.741,0.693,2.94,1.449,2.94
		c0.756,0,1.45-0.199,1.45-2.94c0-0.979-0.021-2.761-1.45-2.761S141.025,8.95,141.025,9.93z"/>
	<path fill="#FFFFFF" d="M149.516,4.868h3.929V6.31h0.042c0.504-1.16,1.744-1.641,3.046-1.641c1.009,0,2.165,0.279,2.795,1.061
		C160,6.569,160,7.729,160,8.79v6.301h-4.16V8.89c0-0.62,0-1.48-0.904-1.48c-1.155,0-1.261,0.94-1.261,1.78v5.901h-4.159V4.868z"/>
</g>
</svg>
